<svg width="100%" viewBox="0 0 680 520" xmlns="http://www.w3.org/2000/svg">
  <defs>
    <marker id="arrow" viewBox="0 0 10 10" refX="8" refY="5" markerWidth="6" markerHeight="6" orient="auto-start-reverse">
      <path d="M2 1L8 5L2 9" fill="none" stroke="#888" stroke-width="1.5" stroke-linecap="round" stroke-linejoin="round"/>
    </marker>
  </defs>
  <rect x="30" y="55" width="130" height="54" rx="8" fill="#E1F5EE" stroke="#0F6E56" stroke-width="0.5"/>
  <text font-family="sans-serif" font-size="14" font-weight="500" x="95" y="79" text-anchor="middle">AWS S3</text>
  <text font-family="sans-serif" font-size="12" x="95" y="97" text-anchor="middle" fill="#555">CSV / JSON files</text>
  <rect x="175" y="55" width="130" height="54" rx="8" fill="#E1F5EE" stroke="#0F6E56" stroke-width="0.5"/>
  <text font-family="sans-serif" font-size="14" font-weight="500" x="240" y="79" text-anchor="middle">Google Sheets</text>
  <text font-family="sans-serif" font-size="12" x="240" y="97" text-anchor="middle" fill="#555">Store locations</text>
  <rect x="320" y="55" width="130" height="54" rx="8" fill="#E1F5EE" stroke="#0F6E56" stroke-width="0.5"/>
  <text font-family="sans-serif" font-size="14" font-weight="500" x="385" y="79" text-anchor="middle">Supabase PG</text>
  <text font-family="sans-serif" font-size="12" x="385" y="97" text-anchor="middle" fill="#555">Daily sales tables</text>
  <line x1="95" y1="109" x2="95" y2="148" stroke="#888" stroke-width="1.5" marker-end="url(#arrow)"/>
  <line x1="240" y1="109" x2="240" y2="148" stroke="#888" stroke-width="1.5" marker-end="url(#arrow)"/>
  <line x1="385" y1="109" x2="385" y2="148" stroke="#888" stroke-width="1.5" marker-end="url(#arrow)"/>
  <rect x="30" y="148" width="420" height="80" rx="8" fill="#EEEDFE" stroke="#534AB7" stroke-width="0.5"/>
  <text font-family="sans-serif" font-size="14" font-weight="500" x="240" y="178" text-anchor="middle">Apache Airflow — data_pipeline DAG (daily)</text>
  <text font-family="sans-serif" font-size="12" x="240" y="198" text-anchor="middle" fill="#555">check_idempotency - ingest - load_snowflake - data_quality - dbt_run</text>
  <text font-family="sans-serif" font-size="12" x="240" y="216" text-anchor="middle" fill="#555">Docker - retry=1 - on_failure_callback - @daily schedule</text>
  <line x1="240" y1="228" x2="240" y2="268" stroke="#888" stroke-width="1.5" marker-end="url(#arrow)"/>
  <rect x="30" y="268" width="420" height="54" rx="8" fill="#FAEEDA" stroke="#854F0B" stroke-width="0.5"/>
  <text font-family="sans-serif" font-size="14" font-weight="500" x="240" y="289" text-anchor="middle">S3 Parquet layer</text>
  <text font-family="sans-serif" font-size="12" x="240" y="307" text-anchor="middle" fill="#555">supplychain360-parquet-eu-west-2 - 31 files - ingestion timestamp</text>
  <line x1="240" y1="322" x2="240" y2="362" stroke="#888" stroke-width="1.5" marker-end="url(#arrow)"/>
  <rect x="30" y="362" width="420" height="54" rx="8" fill="#E6F1FB" stroke="#185FA5" stroke-width="0.5"/>
  <text font-family="sans-serif" font-size="14" font-weight="500" x="240" y="383" text-anchor="middle">Snowflake RAW / SHEETS / SUPABASE</text>
  <text font-family="sans-serif" font-size="12" x="240" y="401" text-anchor="middle" fill="#555">258K+ rows - 34 tables - daily sales_2026_03_XX tables</text>
  <line x1="240" y1="416" x2="240" y2="456" stroke="#888" stroke-width="1.5" marker-end="url(#arrow)"/>
  <rect x="30" y="456" width="420" height="54" rx="8" fill="#FAECE7" stroke="#993C1D" stroke-width="0.5"/>
  <text font-family="sans-serif" font-size="14" font-weight="500" x="240" y="477" text-anchor="middle">dbt — staging - dimensions - facts</text>
  <text font-family="sans-serif" font-size="12" x="240" y="495" text-anchor="middle" fill="#555">7 staging views - 4 dims - 3 facts - 49/49 tests - incremental models</text>
  <rect x="530" y="268" width="140" height="44" rx="8" fill="#F1EFE8" stroke="#5F5E5A" stroke-width="0.5"/>
  <text font-family="sans-serif" font-size="14" font-weight="500" x="600" y="286" text-anchor="middle">Terraform IaC</text>
  <text font-family="sans-serif" font-size="12" x="600" y="302" text-anchor="middle" fill="#555">S3 remote state</text>
  <rect x="530" y="322" width="140" height="44" rx="8" fill="#F1EFE8" stroke="#5F5E5A" stroke-width="0.5"/>
  <text font-family="sans-serif" font-size="14" font-weight="500" x="600" y="340" text-anchor="middle">GitHub Actions</text>
  <text font-family="sans-serif" font-size="12" x="600" y="356" text-anchor="middle" fill="#555">CI/CD - lint - test</text>
  <rect x="530" y="376" width="140" height="44" rx="8" fill="#F1EFE8" stroke="#5F5E5A" stroke-width="0.5"/>
  <text font-family="sans-serif" font-size="14" font-weight="500" x="600" y="394" text-anchor="middle">Docker Hub</text>
  <text font-family="sans-serif" font-size="12" x="600" y="410" text-anchor="middle" fill="#555">mdethereal/airflow</text>
  <rect x="530" y="430" width="140" height="44" rx="8" fill="#F1EFE8" stroke="#5F5E5A" stroke-width="0.5"/>
  <text font-family="sans-serif" font-size="14" font-weight="500" x="600" y="448" text-anchor="middle">AWS SSM</text>
  <text font-family="sans-serif" font-size="12" x="600" y="464" text-anchor="middle" fill="#555">Secrets store</text>
</svg>